<?xml version="1.0" encoding="UTF-8" standalone="no"?>
<!-- Created with Inkscape (http://www.inkscape.org/) -->

<svg
   width="600mm"
   height="300mm"
   viewBox="0 0 600 300"
   version="1.1"
   id="svg5"
   inkscape:version="1.2.2 (1:1.2.2+202212051550+b0a8486541)"
   sodipodi:docname="logo_concept.svg"
   inkscape:export-filename="logo_concept.png"
   inkscape:export-xdpi="81.279999"
   inkscape:export-ydpi="81.279999"
   xmlns:inkscape="http://www.inkscape.org/namespaces/inkscape"
   xmlns:sodipodi="http://sodipodi.sourceforge.net/DTD/sodipodi-0.dtd"
   xmlns:xlink="http://www.w3.org/1999/xlink"
   xmlns="http://www.w3.org/2000/svg"
   xmlns:svg="http://www.w3.org/2000/svg">
  <sodipodi:namedview
     id="namedview7"
     pagecolor="#ffffff"
     bordercolor="#000000"
     borderopacity="0.25"
     inkscape:showpageshadow="2"
     inkscape:pageopacity="0.0"
     inkscape:pagecheckerboard="0"
     inkscape:deskcolor="#d1d1d1"
     inkscape:document-units="mm"
     showgrid="false"
     inkscape:zoom="0.75722503"
     inkscape:cx="1109.3136"
     inkscape:cy="783.12255"
     inkscape:window-width="1920"
     inkscape:window-height="1043"
     inkscape:window-x="1920"
     inkscape:window-y="0"
     inkscape:window-maximized="1"
     inkscape:current-layer="layer1" />
  <defs
     id="defs2">
    <linearGradient
       inkscape:collect="always"
       id="linearGradient29381">
      <stop
         style="stop-color:#946c61;stop-opacity:1;"
         offset="0.16665462"
         id="stop29377" />
      <stop
         style="stop-color:#7f5151;stop-opacity:1;"
         offset="1"
         id="stop29379" />
    </linearGradient>
    <linearGradient
       inkscape:collect="always"
       id="linearGradient41543">
      <stop
         style="stop-color:#8d4653;stop-opacity:1;"
         offset="0"
         id="stop41539" />
      <stop
         style="stop-color:#a45d61;stop-opacity:1;"
         offset="1"
         id="stop41541" />
    </linearGradient>
    <inkscape:path-effect
       effect="perspective-envelope"
       up_left_point="185.67091,181.1778"
       up_right_point="409.10121,181.1778"
       down_left_point="175.63123,223.2091"
       down_right_point="419.56296,223.2091"
       id="path-effect26498"
       is_visible="true"
       lpeversion="1"
       deform_type="perspective"
       horizontal_mirror="false"
       vertical_mirror="false"
       overflow_perspective="false" />
    <inkscape:path-effect
       effect="perspective-envelope"
       up_left_point="202.97661,126.60595"
       up_right_point="391.92824,126.60595"
       down_left_point="195.50885,173.39405"
       down_right_point="404.49115,173.39405"
       id="path-effect10625"
       is_visible="true"
       lpeversion="1"
       deform_type="perspective"
       horizontal_mirror="false"
       vertical_mirror="false"
       overflow_perspective="false" />
    <linearGradient
       inkscape:collect="always"
       id="linearGradient1637">
      <stop
         style="stop-color:#cac4c3;stop-opacity:1;"
         offset="0.16665462"
         id="stop1633" />
      <stop
         style="stop-color:#837272;stop-opacity:1;"
         offset="1"
         id="stop1635" />
    </linearGradient>
    <linearGradient
       inkscape:collect="always"
       xlink:href="#linearGradient1637"
       id="linearGradient22004"
       x1="300"
       y1="113.29901"
       x2="300"
       y2="197.56389"
       gradientUnits="userSpaceOnUse" />
    <linearGradient
       inkscape:collect="always"
       xlink:href="#linearGradient41543"
       id="linearGradient41545"
       x1="289.56308"
       y1="186.12692"
       x2="289.01813"
       y2="240.60522"
       gradientUnits="userSpaceOnUse" />
    <radialGradient
       inkscape:collect="always"
       xlink:href="#linearGradient29381"
       id="radialGradient29375"
       cx="295.36484"
       cy="197.12666"
       fx="295.36484"
       fy="197.12666"
       r="300.5293"
       gradientTransform="matrix(1.013661,0,1.3695405e-6,0.50088061,-4.0349375,74.795692)"
       gradientUnits="userSpaceOnUse" />
  </defs>
  <g
     inkscape:label="Calque 1"
     inkscape:groupmode="layer"
     id="layer1">
    <path
       id="rect864"
       style="fill:url(#radialGradient29375);stroke-width:0.264583;fill-opacity:1"
       d="m -1.0585984,-0.144683 c 0,100.176433 0,200.352863 0,300.529303 200.3528684,0 400.7057284,0 601.0585984,0 0,-100.35287 0,-200.705731 0,-301.058599 -200.35287,0 -400.70573,0 -601.0585984,0 0,0.176432 0,0.352864 0,0.529296 z" />
    <path
       style="fill:#1f0d13;fill-opacity:1;stroke-width:0.264583"
       d="m 195.62871,172.64305 -0.1518,1.07839 27.17292,0.44184 6.18084,-1.37021 4.42066,-1.98303 3.84957,-2.6784 1.16021,-2.98606 0.91036,-3.45641 -14.42781,7.75244 -22.83535,0.22043 z"
       id="path9223" />
    <g
       aria-label="DICEY  "
       id="g17608"
       style="font-size:69.6381px;font-family:'Liberation Serif';-inkscape-font-specification:'Liberation Serif';fill:#411c29;stroke-width:5.80316;fill-opacity:1">
      <path
         id="path17606"
         style="fill:#411c29;fill-opacity:1"
         d="m 290.14453,121.86328 c -6.16579,0.16936 -12.55463,1.95007 -17.17969,6.19727 -1.08312,1.01581 -2.05888,2.1466 -2.89843,3.37109 0.0547,-3.04232 0.10921,-6.08464 0.16406,-9.12695 -8.61589,0 -17.23177,0 -25.84766,0 -0.17825,3.15158 -0.3525,6.3034 -0.52929,9.45508 -3.29033,-5.07604 -9.12172,-8.0387 -14.99751,-8.88478 -5.75897,-0.90985 -11.60776,-0.45569 -17.4107,-0.5703 -4.20117,0 -8.40234,0 -12.60351,0 -0.55439,3.45475 -1.10264,6.91653 -1.65039,10.375 1.74928,0.27388 3.4987,0.54681 5.24804,0.82031 -1.57747,10.68034 -3.15494,21.36068 -4.73242,32.04102 -1.97593,0.33064 -3.95173,0.66201 -5.92773,0.99218 -0.58101,3.63397 -1.16226,7.2679 -1.74024,10.90235 10.62472,-0.18169 21.25629,0.31762 31.87656,-0.10176 6.81774,-0.63945 13.67477,-3.44996 18.1911,-8.73759 4.74501,-5.46093 6.87122,-12.73604 7.28907,-19.85242 0.40024,-5.40345 -0.24351,-11.05332 -2.87626,-15.86683 1.5306,0.23308 3.0612,0.46615 4.5918,0.69922 -0.46485,10.68099 -0.92969,21.36198 -1.39453,32.04297 -1.93623,0.32796 -3.87222,0.65732 -5.8086,0.98438 -0.1956,3.60085 -0.39093,7.20173 -0.58398,10.80273 9.30013,0 18.60026,0 27.90039,0 0.0652,-3.57746 0.12947,-7.15494 0.19336,-10.73242 -1.9107,-0.33458 -3.82163,-0.66788 -5.73242,-1.00195 0.32226,-10.68099 0.64453,-21.36198 0.96679,-32.04297 1.48243,-0.22266 2.96485,-0.44532 4.44727,-0.66797 -3.11883,5.34018 -3.95398,11.66781 -3.81574,17.76036 0.18759,6.67826 2.09603,13.56718 6.59381,18.65415 4.7685,5.41403 11.91263,8.49304 19.0885,8.66287 6.70717,0.4318 13.45769,-0.56805 19.86976,-2.5266 0.0534,0.63151 0.10664,1.26303 0.16015,1.89453 15.35482,0 30.70964,0 46.06446,0 -0.84119,-7.48234 -1.68114,-14.96483 -2.52149,-22.44727 -2.99218,0 -5.98437,0 -8.97656,0 -0.62305,-4.33724 -1.24609,-8.67447 -1.86914,-13.01171 1.95638,0 3.91276,0 5.86914,0 -0.44716,-2.85549 -0.89455,-5.71094 -1.3418,-8.56641 1.05803,0.22262 2.21076,0.28259 3.20959,0.60687 5.95162,7.31659 11.90324,14.63318 17.85487,21.94977 0.69531,3.24479 1.39062,6.48958 2.08593,9.73438 -2.29951,0.32788 -4.59873,0.65781 -6.89843,0.98437 0.7086,3.58379 1.41952,7.16714 2.13281,10.75 10.32161,0 20.64323,0 30.96484,0 -0.88753,-3.67673 -1.77413,-7.35369 -2.6582,-11.03125 -2.46475,-0.33334 -4.9297,-0.66526 -7.39453,-0.99805 -0.8711,-3.82552 -1.74219,-7.65104 -2.61328,-11.47656 2.29231,-6.73958 4.58463,-13.47917 6.87695,-20.21875 2.2175,-0.4099 4.43456,-0.82212 6.65234,-1.23047 -0.90825,-3.38215 -1.8163,-6.76435 -2.72461,-10.14648 -7.70117,0 -15.40234,0 -23.10351,0 0.84288,3.54658 1.6868,7.09292 2.5332,10.63867 0.99928,0.14891 1.99871,0.29681 2.99805,0.44531 -0.73958,2.19662 -1.47917,4.39323 -2.21875,6.58985 -1.90235,-2.33269 -3.80469,-4.66537 -5.70703,-6.99805 0.70704,-0.10604 1.41426,-0.21089 2.12109,-0.31836 -0.72419,-3.45243 -1.44818,-6.90489 -2.17187,-10.35742 -21.25196,0 -42.50391,0 -63.75586,0 -0.15244,0.32404 0.31699,1.41181 -0.3082,1.15583 -5.25024,-1.02541 -10.59103,-1.73655 -15.95157,-1.59724 z m 22.46094,11.81055 c 1.04883,10.68555 2.09765,21.37109 3.14648,32.05664 -0.68294,0.11979 -1.36588,0.23958 -2.04883,0.35937 -0.21256,-3.75783 -0.4278,-7.51551 -0.63867,-11.27343 -3.64778,0 -7.29557,0 -10.94336,0 -0.32256,3.08621 -0.63745,6.17323 -0.95703,9.25976 -3.02322,1.56061 -6.45091,1.81759 -9.7768,1.56252 -3.04197,-0.34194 -5.96912,-2.11028 -7.35682,-4.89299 -2.28027,-3.9803 -2.47797,-8.66335 -2.4575,-13.17649 0.0408,-2.6045 0.30794,-5.20416 1.08331,-7.70983 0.51966,-1.8711 1.59345,-3.83797 3.41197,-4.80439 2.25172,-1.18681 4.91116,-1.31555 7.40204,-1.12354 1.82126,0.19052 3.68891,0.57387 5.35005,1.29707 0.49134,2.33203 1.10173,4.64872 1.63477,6.97656 3.68685,0 7.3737,0 11.06054,0 -0.26972,-2.93956 -0.54183,-5.87889 -0.8125,-8.81836 0.63412,0.0957 1.26823,0.1914 1.90235,0.28711 z m -93.35742,0.94726 c 3.3065,0.0296 6.96934,0.49491 9.42636,2.93754 2.48949,2.63733 2.74985,6.58026 2.50182,9.96485 -0.26462,3.75258 -0.87384,7.56566 -2.47914,10.99739 -1.21508,2.57033 -3.38088,4.80512 -6.19034,5.5453 -2.79829,0.85494 -5.75917,0.573 -8.63956,0.53149 0.77899,-5.38503 1.45971,-10.79025 2.2038,-16.18272 0.62022,-4.59795 1.24043,-9.1959 1.86065,-13.79385 0.4388,0 0.8776,0 1.31641,0 z m 109.32422,0.004 c 2.55657,0.0171 5.11465,0.0292 7.66796,0.17188 0.19206,0.65039 0.38412,1.30078 0.57618,1.95117 -1.52279,0 -3.04558,0 -4.56836,0 -0.088,1.77268 -0.17157,3.54559 -0.25782,5.31836 -0.94987,0 -1.89974,0 -2.84961,0 -0.27539,-2.48047 -0.55078,-4.96094 -0.82617,-7.44141 0.0859,0 0.17188,0 0.25782,0 z m 4.88867,20.01562 c 0.59298,1.86202 1.18695,3.72372 1.77929,5.58594 2.68816,0 5.37631,0 8.06446,0 -0.0775,1.37826 -0.15495,2.75651 -0.23242,4.13477 -3.77,0.23267 -7.61816,0.12365 -11.42383,0.16211 -0.36654,-3.29427 -0.73308,-6.58854 -1.09961,-9.88282 0.9707,0 1.9414,0 2.91211,0 z" />
    </g>
    <path
       style="fill:#411c29;fill-opacity:1;stroke-width:0.264583"
       d="m 242.35796,132.48656 -2.38663,34.6483 5.04413,-1.05762 24.4025,0.59659 1.87351,-1.15059 -0.68397,-32.63372 z"
       id="path40730" />
    <path
       style="fill:#411c29;fill-opacity:1;stroke-width:0.264583"
       d="m 225.1059,176.26008 h 60.91781 l 31.60744,3e-5 -2.28661,-53.95542 -93.10412,0.0174 z"
       id="path40734" />
    <path
       style="fill:#321d24;fill-opacity:1;stroke-width:0.264583"
       d="m 195.62871,172.64305 -0.3036,2.15678 15.83944,0.5649 h 8.634 l 7.51388,-0.38505 6.19767,-3.57823 6.62358,-6.62358 2.67079,-9.96754 v -9.63503 l -13.31771,22.07586 -13.54089,4.30674 z"
       id="path10210" />
    <path
       style="fill:#411c29;fill-opacity:1;stroke-width:0.264583"
       d="m 269.31948,172.16827 51.22071,-6.37889 -5.26629,-33.30282 -47.66228,-5.41897 z"
       id="path40732" />
    <path
       style="fill:#321d24;fill-opacity:1;stroke-width:0.264583"
       d="m 248.84217,128.56803 -0.11934,1.39791 5.48035,1.44432 5.73236,-0.067 5.50377,-1.52937 -0.11435,-1.50305"
       id="path16247" />
    <path
       style="fill:#411c29;fill-opacity:1;stroke-width:0.264583"
       d="m 264.59143,176.26011 132.97886,1.14614 -15.01433,-10.27139 -3.53185,-38.42838 -6.41866,-6.40179 h -12.85049 l -92.14334,4.7629 -3.06303,45.57546 z"
       id="path40736" />
    <path
       style="fill:#321d24;fill-opacity:1;stroke-width:0.264583"
       d="m 323.10284,132.00359 14.34049,0.20975 2.55622,6.94296 4.41286,-0.009 -0.88858,-4.01029 -2.93968,-6.54242 c 0,0 -16.09939,-0.55594 -16.61716,-0.33682 -0.51776,0.21912 -2.8226,1.55038 -2.8226,1.55038 z"
       id="path18449" />
    <path
       style="fill:#321d24;fill-opacity:1;stroke-width:0.264583"
       d="m 227.31243,174.97968 5.75803,-2.29766 4.03073,-3.11524 2.77778,-5.4529 1.38836,-6.38335 z"
       id="path10266" />
    <path
       style="fill:#321d24;fill-opacity:1;stroke-width:0.264583"
       d="m 213.13201,132.14346 11.51742,1.01283 4.786,2.17075 4.05375,4.04545 3.88297,2.61645 0.67922,-6.0739 -8.181,-5.95735 -18.22315,-1.69147 z"
       id="path13172" />
    <path
       style="fill:#321d24;fill-opacity:1;stroke-width:0.264583"
       d="m 233.29109,139.08238 2.92036,5.80737 2.86059,-2.76637 -5.34803,-3.70843 z"
       id="path14791" />
    <path
       style="fill:#321d24;fill-opacity:1;stroke-width:0.264583"
       d="m 246.37782,172.59926 -0.13532,1.82407 h 18.4097 v -2.70112 z"
       id="path15519" />
    <path
       style="fill:#321d24;fill-opacity:1;stroke-width:0.264583"
       d="m 277.22332,171.64464 -2.74793,-3.66913 -2.74416,-5.02461 3.24533,0.55576 z"
       id="path16977" />
    <path
       style="fill:#321d24;fill-opacity:1;stroke-width:0.264583"
       d="m 270.6952,156.33068 1.00368,6.54112 5.48206,8.80955 6.99674,2.65883 3.15648,0.52029 12.62629,0.17344 8.56276,-1.53952 0.77314,-0.18574 -0.19576,-3.38401 -19.84703,1.26753 -13.54209,-8.73143 z"
       id="path16975" />
    <path
       style="fill:#321d24;fill-opacity:1;stroke-width:0.264583"
       d="m 283.45111,174.0261 0.69686,0.30508 6.52156,0.20798 4.98766,-0.15804 10.50724,-0.58115 1.11479,-1.2739 z"
       id="path16979" />
    <g
       aria-label="DEFENSE "
       id="text24251"
       style="font-size:55.5714px;font-family:KacstOne;-inkscape-font-specification:KacstOne;fill:#411c29;stroke-width:4.63094;fill-opacity:1"
       transform="translate(0,-1.8844435)">
      <path
         id="path26495"
         d="m 364.20508,177.48438 c -4.39122,0.0571 -9.04795,1.54239 -11.89366,5.04782 -2.8065,3.49389 -3.13701,8.41092 -1.92666,12.5967 1.28433,4.99083 5.60885,8.76702 10.43905,10.23521 3.72101,1.3558 7.84022,1.401 11.41914,3.16709 1.56276,1.00743 2.46246,3.23729 1.60666,4.96489 -0.83482,0.93689 -2.22425,1.02685 -3.39678,1.15857 -4.70948,0.28899 -9.14352,-1.75603 -13.14423,-4.01982 -0.89749,-0.51156 -1.95536,-1.11344 -2.99024,-0.59578 -1.39473,0.58984 -2.08571,2.2759 -1.67156,3.70391 0.3906,3.1052 0.78053,6.21048 1.17156,9.31562 6.48558,2.70658 13.60124,4.5548 20.66338,3.56935 4.35423,-0.51205 8.78619,-2.66199 11.02249,-6.57679 2.23856,-4.05008 1.95104,-9.0126 0.51208,-13.28009 -1.73224,-5.55734 -6.6985,-9.67036 -12.19607,-11.23365 -3.58794,-1.15153 -7.50076,-1.21133 -10.90618,-2.92608 -0.78418,-0.72981 -1.15242,-2.35343 -0.0996,-3 1.693,-0.86238 3.61546,-0.58672 5.4668,-0.43945 2.98511,0.42001 5.72846,1.74772 8.50837,2.81962 2.17853,0.52229 4.43707,-1.73374 3.8416,-3.91762 -0.42892,-2.62814 -0.91888,-5.24446 -1.3695,-7.87076 -4.85993,-1.59047 -9.90467,-2.86301 -15.05664,-2.71874 z m -172.50781,0.66406 c -3.03776,-0.001 -6.07553,-0.003 -9.11329,-0.004 -3.81787,15.98548 -7.63637,31.97082 -11.45117,47.95703 7.68072,-0.28194 15.41388,0.4346 23.0532,-0.62732 6.36769,-1.01312 12.66693,-4.04224 16.5718,-9.31018 4.23978,-5.65274 6.03149,-12.78149 6.36914,-19.74804 0.12291,-4.55593 -0.96342,-9.43507 -4.24122,-12.78379 -3.4589,-3.53574 -8.47811,-4.96478 -13.28983,-5.30556 -2.62589,-0.22894 -5.26541,-0.17798 -7.89863,-0.17823 z m 29.1914,0.44336 c -2.44932,15.82134 -4.8966,31.64312 -7.34375,47.46484 11.09831,0 22.19662,0 33.29492,0 0.42606,-4.12634 0.85256,-8.25264 1.2793,-12.37891 -6.62565,0 -13.2513,0 -19.87695,0 0.37239,-2.58854 0.74479,-5.17708 1.11719,-7.76562 6.10286,0 12.20572,0 18.30859,0 0.41913,-3.99631 0.84102,-7.99234 1.26367,-11.98828 -5.94857,0 -11.89713,0 -17.8457,0 0.19596,-1.36393 0.39192,-2.72787 0.58789,-4.0918 6.1543,0 12.30859,0 18.46289,0 0.40733,-3.89599 0.81562,-7.79189 1.22656,-11.6875 -10.13476,0 -20.26953,0 -30.4043,0 -0.0234,0.14909 -0.0469,0.29818 -0.0703,0.44727 z m 31.48438,0.0371 c -1.35068,15.80932 -2.7038,31.61843 -4.05469,47.42773 4.2832,0 8.56641,0 12.84961,0 0.5042,-6.73235 1.00635,-13.46485 1.50976,-20.19726 5.08789,-1e-5 10.17579,0 15.26368,0 0.17028,-3.99611 0.34152,-7.99218 0.51171,-11.98829 -4.95768,0 -9.91536,0 -14.87304,0 0.0996,-1.34635 0.19922,-2.6927 0.29883,-4.03906 5.44531,0 10.89062,0 16.33593,0 0.15877,-3.89575 0.31481,-7.79163 0.47071,-11.6875 -9.42383,0 -18.84766,0 -28.27149,0 -0.0137,0.16146 -0.0273,0.32292 -0.041,0.48438 z m 28.66015,0.0332 c -0.35725,15.79818 -0.71589,31.59633 -1.07226,47.39453 11.08008,0 22.16015,0 33.24023,0 -0.12013,-4.12631 -0.23968,-8.25264 -0.36133,-12.37891 -6.63476,0 -13.26953,0 -19.90429,0 0.0332,-2.58854 0.0664,-5.17708 0.0996,-7.76562 6.10742,0 12.21484,0 18.32226,0 -0.10283,-3.99611 -0.20654,-7.9922 -0.31054,-11.98828 -5.95769,0 -11.91537,0 -17.87305,0 0.0176,-1.36393 0.0351,-2.72787 0.0527,-4.0918 6.16407,0 12.32813,0 18.49219,0 -0.1127,-3.89583 -0.22369,-7.79171 -0.33789,-11.6875 -10.11198,0 -20.22396,0 -30.33594,0 -0.004,0.17253 -0.008,0.34505 -0.0117,0.51758 z m 31.46485,0.0352 c 0.73115,15.78648 1.46349,31.57292 2.19531,47.35937 4.22917,0 8.45833,0 12.6875,0 -0.43226,-7.51417 -0.85895,-15.02867 -1.28906,-22.54297 4.28767,7.51437 8.57604,15.02835 12.86328,22.54297 4.50325,0 9.00651,0 13.50976,0 -1.69961,-15.97073 -3.40265,-31.9411 -5.09961,-47.91211 -4.07031,0 -8.14062,0 -12.21093,0 0.65802,6.87065 1.32066,13.74085 1.98047,20.61133 -3.99455,-6.87059 -7.99105,-13.74004 -11.98438,-20.61133 -4.22591,0 -8.45182,0 -12.67773,0 0.008,0.18425 0.0169,0.36849 0.0254,0.55274 z m 68.82422,0.0801 c 3.11321,15.75978 6.22681,31.51949 9.33984,47.2793 11.14388,0 22.28776,0 33.43164,0 -1.02843,-4.12603 -2.05554,-8.25239 -3.08203,-12.37891 -6.64844,0 -13.29688,0 -19.94531,0 -0.53842,-2.58854 -1.07683,-5.17708 -1.61524,-7.76562 6.12044,0 12.24089,0 18.36133,0 -0.98672,-3.996 -1.97201,-7.99235 -2.95898,-11.98828 -5.96745,0 -11.9349,0 -17.90235,0 -0.28385,-1.36393 -0.56771,-2.72787 -0.85156,-4.0918 6.17318,0 12.34635,0 18.51953,0 -0.9636,-3.89598 -1.92844,-7.79165 -2.89258,-11.6875 -10.17643,0 -20.35286,0 -30.52929,0 0.0417,0.21094 0.0833,0.42188 0.125,0.63281 z m -185.90039,10.95313 c 2.56929,0.1014 5.48566,0.11684 7.48834,1.97315 1.56631,1.77038 1.38562,4.31984 1.23319,6.51662 -0.37006,3.56935 -1.26787,7.18551 -3.2066,10.24256 -1.82595,2.83274 -4.9955,4.57722 -8.29341,5.02514 -1.81536,0.28865 -3.79192,0.30763 -5.67856,0.30698 1.83073,-8.02148 3.66146,-16.04297 5.49219,-24.06445 0.98828,0 1.97656,0 2.96485,0 z"
         style="fill:#411c29;fill-opacity:1" />
    </g>
    <path
       style="fill:#411c29;fill-opacity:1;stroke-width:0.264583"
       d="m 171.42139,224.31431 h 89.51834 l 0.61019,-50.15103 -68.47497,1.6328 z"
       id="path41529" />
    <path
       style="fill:#411c29;fill-opacity:1;stroke-width:0.264583"
       d="m 260.93973,224.31431 137.49385,0.69768 -7.82596,-52.36894 -126.03761,1.80853 z"
       id="path41531" />
    <path
       style="fill:#321d24;fill-opacity:1;stroke-width:0.264583"
       d="m 341.10112,220.45839 0.30948,0.90026 6.93971,0.0371 v -0.93736 z"
       id="path31575" />
    <path
       style="fill:#321d24;fill-opacity:1;stroke-width:0.264583"
       d="m 277.30386,171.64842 3.0012,1.50459 3.28514,1.04405 4.4907,0.69769 8.01526,0.54906 6.92549,-0.74926 6.20996,-1.50326"
       id="path17707" />
    <path
       style="fill:#411c29;fill-opacity:1;stroke-width:0.264583"
       d="m 397.57029,177.40625 12.77459,46.766 -11.9113,0.83974 -19.49651,-35.2308 18.63322,-12.37494"
       id="path41535" />
    <path
       style="fill:#411c29;fill-opacity:1;stroke-width:0.264583"
       d="m 414.61914,187.94764 9.4746,36.22461 -25.66016,0.83974 -11.79357,-40.34659 z"
       id="path41537" />
    <path
       style="fill:#321d24;fill-opacity:1;stroke-width:0.264583"
       d="m 175.95275,220.04295 -0.48448,2.14015 15.99136,0.23526 5.95133,-0.74976 4.13715,-1.44032 3.31272,-2.40513 3.7753,-3.85321 c 0,0 1.96439,-3.86749 2.20854,-4.38589 0.24416,-0.51839 1.59094,-8.83463 1.59094,-8.83463 l -12.17084,14.44964 -16.14321,3.50634 z"
       id="path25001" />
    <path
       style="fill:#321d24;fill-opacity:1;stroke-width:0.264583"
       d="m 188.66232,186.62608 11.28299,0.71476 3.15194,0.97953 1.45638,1.84617 1.68674,4.33333 0.30884,3.42366 0.36689,5.70951 5.66959,-10.1548 c 0,0 -3.26791,-7.24074 -4.13216,-7.92011 -0.86425,-0.67937 -9.54941,-4.3604 -10.0694,-4.41818 -0.51999,-0.0578 -9.76858,0.52695 -9.76858,0.52695 z"
       id="path25003" />
    <path
       style="fill:#321d24;fill-opacity:1;stroke-width:0.264583"
       d="m 218.04551,219.51302 -0.52424,3.32382 25.67219,-0.21694 0.45995,-4.11612 z"
       id="path28635" />
    <path
       style="fill:#321d24;fill-opacity:1;stroke-width:0.264583"
       d="m 224.00425,203.09145 19.97982,0.11478 0.37839,-4.54032 -20.12302,-0.78685 z"
       id="path29363" />
    <path
       style="fill:#321d24;fill-opacity:1;stroke-width:0.264583"
       d="m 226.79246,186.87039 19.53555,0.47507 0.55825,-4.45261 -17.3726,-0.56018 c -1.17117,0.1845 -2.7212,4.53772 -2.7212,4.53772 z"
       id="path29365" />
    <path
       style="fill:#321d24;fill-opacity:1;stroke-width:0.264583"
       d="m 252.35212,220.45839 -0.1309,1.55583 5.35955,0.0121 0.15493,-1.5679 z"
       id="path30109" />
    <path
       style="fill:#321d24;fill-opacity:1;stroke-width:0.264583"
       d="m 259.07275,202.58665 15.00327,0.25307 0.21051,0.0299 0.0995,-2.60929 -16.36495,-1.02151 z"
       id="path30111" />
    <path
       style="fill:#321d24;fill-opacity:1;stroke-width:0.264583"
       d="m 260.27747,186.48391 16.14115,0.24968 0.28091,-3.48014 -17.70872,-0.38508 0.0449,2.59005 z"
       id="path30113" />
    <path
       style="fill:#321d24;fill-opacity:1;stroke-width:0.264583"
       d="m 283.74742,220.45839 v 1.74142 l 25.6386,0.0424 v -1.78386 l -12.00203,-1.96293 z"
       id="path30841" />
    <path
       style="fill:#321d24;fill-opacity:1;stroke-width:0.264583"
       d="m 289.26292,202.86962 h 18.38272 l -0.14941,-4.84389 -21.77264,0.2228 z"
       id="path31569" />
    <path
       style="fill:#321d24;fill-opacity:1;stroke-width:0.264583"
       d="m 289.53364,186.70164 18.42842,0.0602 -0.0826,-3.39689 -19.6073,-0.38865 z"
       id="path31571" />
    <path
       style="fill:#321d24;fill-opacity:1;stroke-width:0.264583"
       d="m 318.23427,220.45839 0.0488,1.35625 5.27775,-0.002 -0.14317,-2.06182 z"
       id="path31573" />
    <path
       style="fill:#321d24;fill-opacity:1;stroke-width:0.264583"
       d="m 341.4106,221.35865 -0.58645,0.0371 -20.30904,-32.13512 0.0214,-4.05472 3.66689,0.86208"
       id="path31577" />
    <path
       style="fill:#321d24;fill-opacity:1;stroke-width:0.264583"
       d="m 328.07843,201.22812 11.77806,20.16763 5.02396,-0.0186 -1.25222,-5.3079 -11.2749,-15.86172 z"
       id="path31579" />
    <path
       style="fill:#321d24;fill-opacity:1;stroke-width:0.264583"
       d="m 357.28828,218.43715 v 2.31721 l 4.99715,1.44519 3.26168,0.60296 3.22294,0.0632 4.50409,-0.14097 3.46487,-0.68299 4.13687,-1.7154 1.35686,-1.74166 0.70789,-3.64274 -6.60437,1.38209 z"
       id="path32309" />
    <path
       style="fill:#321d24;fill-opacity:1;stroke-width:0.264583"
       d="m 376.75854,185.55984 0.46876,2.23011 -6.06229,-1.88312 -3.35008,-0.79651 -2.91549,-0.0514 -2.05404,0.90454 -1.93217,1.77575 -0.63244,1.8694 0.30853,2.58035 1.67209,3.17173 -6.17757,-5.45569 2.69338,-7.8617 9.1268,-1.18015 c 0,0 4.63444,1.28465 4.85227,1.32833 0.21783,0.0437 4.00225,3.36841 4.00225,3.36841 z"
       id="path33037" />
    <path
       style="fill:#321d24;fill-opacity:1;stroke-width:0.264583"
       d="m 393.67711,220.2007 0.27464,2.09686 25.74012,-0.3636 -0.55711,-2.48219 -23.55032,-0.27689 c -0.14732,0.0309 -1.90733,1.02582 -1.90733,1.02582 z"
       id="path33039" />
    <path
       style="fill:#321d24;fill-opacity:1;stroke-width:0.264583"
       d="m 394.96505,202.82389 18.6005,-0.16518 -0.93811,-4.00162 -19.78681,-0.0572 z"
       id="path33041" />
    <path
       style="fill:#321d24;fill-opacity:1;stroke-width:0.264583"
       d="m 413.07892,200.31103 0.58084,2.34681 -0.31371,-0.0154 -0.8845,-2.50924 z"
       id="path33043" />
    <path
       style="fill:#321d24;fill-opacity:1;stroke-width:0.264583"
       d="m 391.79052,186.66877 18.84995,0.003 -0.96033,-3.20183 -17.91613,-0.46335 -0.75776,1.71992 0.70874,2.06643 z"
       id="path33045" />
    <g
       aria-label="DEFENSE "
       id="g26514"
       style="font-size:55.5714px;font-family:KacstOne;-inkscape-font-specification:KacstOne;fill:url(#linearGradient41545);fill-opacity:1;stroke-width:4.63094"
       transform="translate(0,-1.8930717)">
      <path
         d="m 189.50487,186.02537 -7.17831,31.47296 h 6.43972 c 5.4368,0 9.67734,-1.34739 12.69686,-4.02026 3.00432,-2.64404 5.00832,-6.76031 6.01866,-12.2742 0.9811,-5.35427 0.48362,-9.19646 -1.461,-11.59742 -1.90496,-2.39351 -5.39547,-3.58108 -10.48617,-3.58108 z m -3.99448,-4.17553 h 10.16303 c 7.08555,0 11.99886,1.50887 14.76714,4.55659 2.80821,3.07117 3.65172,7.96539 2.47752,14.79744 -1.21512,7.07023 -3.91125,12.39766 -8.10518,15.86057 -4.25357,3.51216 -10.24091,5.28703 -17.9165,5.28703 h -11.06031 z"
         id="path26500"
         style="fill:url(#linearGradient41545);fill-opacity:1.0" />
      <path
         d="m 224.12991,181.84984 h 23.11783 l -0.44602,4.27708 h -18.34043 l -1.65519,11.50295 h 18.01079 l -0.48497,4.57787 h -18.18454 l -2.18355,15.17481 h 20.05344 l -0.5134,4.96892 h -25.6386 z"
         id="path26502"
         style="fill:url(#linearGradient41545);fill-opacity:1.0" />
      <path
         d="m 255.81897,181.84984 h 21.01176 l -0.17021,4.27708 h -16.21471 l -0.85659,11.44962 h 14.99462 l -0.19777,4.57683 H 259.2468 l -1.5111,20.1981 h -5.38358 z"
         id="path26504"
         style="fill:url(#linearGradient41545);fill-opacity:1.0" />
      <path
         d="m 284.66728,181.84984 h 23.11783 l 0.1184,4.27708 h -18.34042 l -0.13721,11.50295 h 18.01079 l 0.11914,4.57787 h -18.18454 l -0.18101,15.17481 h 20.05342 l 0.14233,4.96892 h -25.6386 z"
         id="path26506"
         style="fill:url(#linearGradient41545);fill-opacity:1.0" />
      <path
         d="m 316.35635,181.84984 h 6.66107 l 19.42589,33.40053 -3.21402,-33.40053 h 4.79989 l 4.32112,40.50163 h -7.24917 l -19.5946,-34.33774 1.9514,34.33774 h -5.22366 z"
         id="path26508"
         style="fill:url(#linearGradient41545);fill-opacity:1.0" />
      <path
         d="m 376.00717,183.07452 0.87795,4.99042 c -2.06396,-0.93703 -3.97265,-1.63309 -5.72969,-2.09033 -1.75358,-0.45634 -3.41039,-0.68417 -4.973,-0.68417 -2.71402,0 -4.73371,0.54041 -6.06374,1.62504 -1.31973,1.08971 -1.8449,2.64801 -1.56906,4.68427 0.23329,1.72216 0.90622,3.03528 2.02066,3.9324 1.13304,0.88285 3.14035,1.60038 6.02375,2.15106 l 3.1958,0.66788 c 3.94935,0.76815 7.0034,2.13188 9.16587,4.10147 2.19425,1.96761 3.60129,4.63485 4.21397,8.02483 0.74182,4.10448 0.0275,7.26232 -2.16675,9.43565 -2.19586,2.19252 -5.80171,3.29606 -10.80297,3.29606 -1.8866,0 -3.93151,-0.23688 -6.13162,-0.70998 -2.17819,-0.47219 -4.4613,-1.16902 -6.84579,-2.08858 l -0.7521,-6.01933 c 2.32109,1.31862 4.567,2.31704 6.7328,2.99134 2.17173,0.67614 4.26455,1.01491 6.27401,1.01491 3.04944,0 5.29666,-0.65775 6.73592,-1.96802 1.43164,-1.30335 1.94157,-3.15067 1.5384,-5.52966 -0.34878,-2.0581 -1.20524,-3.6551 -2.56674,-4.79993 -1.33792,-1.13943 -3.36861,-1.99047 -6.09197,-2.55617 l -3.25126,-0.65527 c -3.97278,-0.81657 -6.92996,-2.09031 -8.87111,-3.8139 -1.92719,-1.7112 -3.07358,-4.07049 -3.44595,-7.05842 -0.42533,-3.41278 0.38871,-6.06685 2.42473,-7.98731 2.03554,-1.90458 5.04404,-2.85098 9.03808,-2.85098 1.71173,0 3.48129,0.15746 5.31056,0.47271 1.83178,0.31568 3.73413,0.79003 5.70925,1.42401 z"
         id="path26510"
         style="fill:url(#linearGradient41545);fill-opacity:1.0" />
      <path
         d="m 385.70984,181.84984 h 23.11784 l 1.06047,4.27708 h -18.34043 l 2.39644,11.50295 h 18.01079 l 1.12747,4.57787 h -18.18454 l 3.1614,15.17481 h 20.05343 l 1.23679,4.96892 h -25.63861 z"
         id="path26512"
         style="fill:url(#linearGradient41545);fill-opacity:1.0" />
    </g>
    <circle
       id="path39937"
       style="fill:#411c29;stroke:#000000;stroke-width:0.264583"
       cx="217.40498"
       cy="133.03004"
       r="0.0082274182" />
    <circle
       id="path39939"
       style="fill:#411c29;stroke:#000000;stroke-width:0.264583"
       cx="212.88152"
       cy="164.28412"
       r="0.016454836" />
    <path
       style="fill:#411c29;fill-opacity:1;stroke-width:0.264583"
       d="m 215.06317,133.9366 -3.82962,33.19826 18.09139,-3.94348 3.97993,-22.93876 -7.93618,-7.3631 z"
       id="path40000" />
    <path
       style="fill:#000000;fill-opacity:0;stroke-width:0.264583"
       d="m 195.62871,172.64305 -0.3036,2.15678 28.15317,0.27127 7.17508,-2.27803 5.19595,-3.96605 2.4118,-5.62802 -17.54869,8.10432 z"
       id="path4905" />
    <path
       style="fill:#321d24;fill-opacity:1;stroke-width:0.264583"
       d="m 223.30877,132.87017 0.28889,0.21094"
       id="path13237" />
    <path
       style="fill:#321d24;fill-opacity:1;stroke-width:0.264583"
       d="m 226.79695,134.09573 -3.86687,-1.21819"
       id="path13239" />
    <path
       style="fill:#321d24;fill-opacity:1;stroke-width:0.264583"
       d="m 225.11089,132.68661 -1.59097,0.19508 0.2001,0.16929 3.15694,1.04392 -0.16303,-0.86573 z"
       id="path13241" />
    <path
       style="fill:#321d24;fill-opacity:1;stroke-width:0.264583"
       d="m 300.33822,133.89246 -2.04745,-1.85764 -2.23843,-0.62496 -2.5672,-0.11494 -4.84185,0.31971 -4.74178,2.08514 -1.97831,3.93706 -1.81235,5.1959 -1.12725,4.9279 -1.39314,6.1966 c 0,0 -1.10059,3.72396 -1.37602,3.38945 -0.27541,-0.33452 -4.02368,-14.50545 -4.02368,-14.50545 l 4.09663,-9.13204 7.87222,-4.56555 8.41582,-1.4718 6.98719,1.36647 4.37886,1.61293 1.25629,5.85364 -0.83439,0.82558 z"
       id="path17717" />
    <path
       style="fill:#321d24;fill-opacity:1;stroke-width:0.264583"
       d="m 325.2992,151.53603 10.70237,-0.0813 2.34053,5.98945 2.72735,-0.18244 -0.55324,-3.71452 -2.4447,-4.98639 -14.10851,0.0445 z"
       id="path18447" />
    <path
       style="fill:#321d24;fill-opacity:1;stroke-width:0.264583"
       d="m 315.40151,172.5932 -0.005,1.39896 36.6523,0.33147 -0.43187,-2.12367 z"
       id="path18445" />
    <path
       style="fill:#321d24;fill-opacity:1;stroke-width:0.264583"
       d="m 311.62088,128.52909 0.022,1.24942 5.92537,1.25256 0.22926,-1.81575 -5.27032,-1.22538 z"
       id="path18451" />
    <path
       style="fill:#321d24;fill-opacity:1;stroke-width:0.264583"
       d="m 370.48281,172.42394 0.4972,1.85558 h 21.00501 l -0.64733,-2.41587 z"
       id="path19905" />
    <path
       style="fill:#321d24;fill-opacity:1;stroke-width:0.264583"
       d="m 349.12117,128.55734 0.2137,1.49415 7.80876,1.19584 9.65168,-1.50322 -0.28398,-1.61466"
       id="path19907" />
    <path
       style="fill:#321d24;fill-opacity:1;stroke-width:0.264583"
       d="m 378.98051,128.45659 0.35563,1.32729 5.22999,1.40136 8.3879,-0.91018 -0.56303,-1.93315 z"
       id="path19911" />
    <path
       style="fill:#321d24;fill-opacity:1;stroke-width:0.264583"
       d="m 353.25423,130.5266 21.93803,27.0703 1.67267,-3.84683 -20.8008,-24.8092 z"
       id="path22091" />
    <path
       style="fill:#321d24;fill-opacity:1;stroke-width:0.264583"
       d="m 352.31154,130.35853 22.91141,28.04394 0.006,-6.97279 c 0,0 -10.46851,-14.55475 -11.16912,-15.38688 -0.70059,-0.83213 -8.46503,-6.9724 -8.46503,-6.9724 z"
       id="path22821" />
    <g
       aria-label="DICEY  "
       id="text6204"
       style="font-size:69.6381px;font-family:'Liberation Serif';-inkscape-font-specification:'Liberation Serif';fill:url(#linearGradient22004);stroke-width:5.80316;fill-opacity:1">
      <path
         d="m 235.92057,148.41577 c 0.50659,-6.25692 -0.71467,-10.88822 -3.62337,-13.98764 -2.8484,-3.05723 -7.15899,-4.5703 -12.96078,-4.5703 h -5.57466 l -5.27156,39.28628 c 2.6712,0.19717 5.86263,0.29582 9.57266,0.29582 5.53131,0 9.76949,-1.78179 12.68224,-5.30632 2.89258,-3.4734 4.61156,-8.7529 5.17547,-15.71784 z m -14.27506,-21.34818 c 7.61192,0 13.10498,1.71133 16.51869,5.17405 3.46893,3.49587 4.9847,8.86528 4.49485,16.24186 -0.51216,7.71257 -2.82751,13.7275 -6.98707,17.90472 -4.21054,4.25104 -10.22672,6.40485 -17.99249,6.40485 l -16.21126,-0.15002 h -5.83952 l 0.31587,-1.97901 5.96373,-1.002 5.9268,-40.14712 -5.19376,-0.80844 0.26158,-1.63889 z"
         id="path9888"
         style="fill:url(#linearGradient22004);fill-opacity:1.0" />
      <path
         d="m 258.79903,169.66204 5.78556,1.002 -0.036,1.97901 h -18.19755 l 0.10991,-1.97901 5.85945,-1.002 1.74876,-40.14712 -5.27789,-0.80844 0.091,-1.63889 h 16.49592 l -0.0298,1.63889 -5.33751,0.80844 z"
         id="path9890"
         style="fill:url(#linearGradient22004);fill-opacity:1.0" />
      <path
         d="m 293.30141,173.39405 c -7.38998,0 -13.17828,-2.20881 -17.30858,-6.567 -4.0568,-4.30468 -6.03046,-10.19886 -5.97643,-17.56329 0.0566,-7.70817 1.92921,-13.36605 5.5733,-17.1167 3.58367,-3.70941 8.87858,-5.54111 15.92917,-5.54111 4.28364,0 8.91695,0.52326 13.91771,1.57352 l 0.85847,9.26201 h -2.07892 l -1.31109,-5.54644 c -1.50843,-0.90076 -3.23608,-1.58957 -5.18435,-2.0684 -1.9245,-0.49854 -3.87445,-0.7474 -5.85308,-0.7474 -5.29696,0 -9.12863,1.57037 -11.52029,4.74468 -2.42599,3.21988 -3.62714,8.30198 -3.57609,15.37188 0.0485,6.70875 1.44559,11.96433 4.22235,15.66279 2.84271,3.7564 6.93995,5.65675 12.2582,5.65675 2.56899,0 4.9744,-0.33426 7.21161,-1.00139 2.22957,-0.68991 3.9677,-1.59857 5.21479,-2.7235 l 0.73954,-7.20981 h 2.14765 l 0.64574,11.45557 c -4.86343,1.56935 -10.17453,2.35784 -15.9097,2.35784 z"
         id="path9892"
         style="fill:url(#linearGradient22004);fill-opacity:1.0" />
      <path
         d="m 315.20237,170.66404 5.71755,-1.002 -3.93662,-40.14712 -5.39238,-0.80844 -0.14106,-1.63889 h 30.96065 l 1.57959,10.11585 h -2.07773 l -2.03597,-6.88839 c -2.35675,-0.29157 -5.72254,-0.43722 -10.09969,-0.43722 h -6.7825 l 1.89236,16.9721 h 11.63924 l 0.25818,-5.31815 h 2.03405 l 1.99954,13.95034 h -2.09625 l -1.77904,-5.58589 h -11.71606 l 2.16483,19.41574 h 8.90135 c 5.79936,0 9.56866,-0.19713 11.30576,-0.59093 l 0.50632,-8.97832 h 2.18135 l 1.44803,12.92033 h -36.36116 z"
         id="path9894"
         style="fill:url(#linearGradient22004);fill-opacity:1.0" />
      <path
         d="m 379.96521,153.61992 3.64924,16.04212 7.43006,1.002 0.47954,1.97901 h -21.01546 l -0.39421,-1.97901 6.98766,-1.002 -3.38909,-15.8343 -19.77956,-24.31282 -4.81093,-0.80844 -0.27977,-1.63889 h 17.45 l 0.34449,1.63889 -5.40043,0.80844 16.4393,20.15697 6.8015,-20.15697 -5.45342,-0.80844 -0.39027,-1.63889 h 13.41833 l 0.44005,1.63889 -4.33206,0.80844 z"
         id="path9896"
         style="fill:url(#linearGradient22004);fill-opacity:1.0" />
    </g>
    <path
       style="fill:#321d24;fill-opacity:1;stroke-width:0.264583"
       d="m 304.25395,137.39858 -2.87658,0.14198 -1.54395,-5.1479"
       id="path17709" />
    <path
       style="fill:#321d24;fill-opacity:1;stroke-width:0.264583"
       d="m 283.15901,134.91833 4.34031,-3.43512 -2.16795,0.33635 -2.17466,1.99103 z"
       id="path22819" />
  </g>
</svg>
